<svg width="70" height="70" viewBox="0 0 70 70" fill="none" xmlns="http://www.w3.org/2000/svg">
<path d="M47.6779 61.5317C45.5392 61.5158 43.4099 61.2473 41.3342 60.7318C34.166 59.0024 26.7846 54.6151 20.5529 48.3779C14.3213 42.1408 9.9285 34.758 8.19901 27.5967C6.37792 20.0635 7.67675 13.6186 11.8521 9.44318L13.0443 8.25099C14.126 7.17149 15.5917 6.56522 17.1199 6.56522C18.6481 6.56522 20.1138 7.17149 21.1955 8.25099L28.0465 15.1006C29.1266 16.1819 29.7334 17.6478 29.7334 19.1762C29.7334 20.7046 29.1266 22.1705 28.0465 23.2518L23.9996 27.2973C25.9396 30.7016 28.5783 34.1086 31.6969 37.2272C34.8154 40.3457 38.2252 42.9858 41.6281 44.9258L45.6736 40.8789C46.2088 40.3436 46.8441 39.9189 47.5434 39.6292C48.2427 39.3394 48.9923 39.1903 49.7492 39.1903C50.5062 39.1903 51.2557 39.3394 51.955 39.6292C52.6543 39.9189 53.2896 40.3436 53.8248 40.8789L60.6744 47.7285C61.7548 48.8094 62.3617 50.2752 62.3617 51.8034C62.3617 53.3317 61.7548 54.7974 60.6744 55.8783L59.4808 57.0705C56.5373 60.0195 52.4631 61.5317 47.6779 61.5317ZM17.1199 10.6641C16.9016 10.663 16.6853 10.7055 16.4836 10.7891C16.282 10.8726 16.099 10.9956 15.9455 11.1508L14.7519 12.343C11.6252 15.4697 10.7119 20.5461 12.1803 26.6287C13.7348 33.0723 17.7365 39.7674 23.4473 45.4768C29.158 51.1861 35.8517 55.1838 42.2967 56.7438C48.3807 58.2121 53.4543 57.2988 56.581 54.1721L57.7732 52.9799C58.0847 52.6682 58.2597 52.2455 58.2597 51.8048C58.2597 51.3641 58.0847 50.9414 57.7732 50.6297L50.925 43.7801C50.6132 43.4686 50.1906 43.2936 49.7499 43.2936C49.3092 43.2936 48.8865 43.4686 48.5748 43.7801L43.4465 48.9084C43.1388 49.2163 42.7411 49.4183 42.3109 49.4851C41.8808 49.552 41.4405 49.4802 41.0539 49.2803C36.8498 47.1065 32.6115 43.9414 28.7971 40.127C24.9826 36.3125 21.8244 32.077 19.6451 27.8729C19.445 27.4864 19.373 27.0462 19.4396 26.6161C19.5062 26.1859 19.708 25.7882 20.0156 25.4803L25.1453 20.352C25.4568 20.0402 25.6318 19.6176 25.6318 19.1769C25.6318 18.7362 25.4568 18.3135 25.1453 18.0018L18.2957 11.1508C18.1417 10.9959 17.9584 10.8731 17.7566 10.7895C17.5548 10.706 17.3384 10.6633 17.1199 10.6641Z" fill="black"/>
<path d="M49.8682 36.8772C49.3243 36.8772 48.8026 36.6611 48.418 36.2765C48.0334 35.8919 47.8174 35.3703 47.8174 34.8264C47.8134 31.2287 46.3825 27.7794 43.8387 25.2353C41.2949 22.6912 37.8458 21.26 34.248 21.2557C33.7041 21.2557 33.1825 21.0396 32.7979 20.655C32.4133 20.2704 32.1973 19.7488 32.1973 19.2049C32.1973 18.661 32.4133 18.1394 32.7979 17.7548C33.1825 17.3702 33.7041 17.1541 34.248 17.1541C43.992 17.1541 51.9189 25.0838 51.9189 34.8264C51.9189 35.3703 51.7029 35.8919 51.3183 36.2765C50.9337 36.6611 50.4121 36.8772 49.8682 36.8772Z" fill="black"/>
<path d="M58.5361 36.8772C57.9922 36.8772 57.4706 36.6611 57.086 36.2765C56.7014 35.8919 56.4854 35.3703 56.4854 34.8264C56.4854 22.5641 46.5049 12.5877 34.248 12.5877C33.7041 12.5877 33.1825 12.3716 32.7979 11.987C32.4133 11.6025 32.1973 11.0808 32.1973 10.5369C32.1973 9.99303 32.4133 9.4714 32.7979 9.08681C33.1825 8.70221 33.7041 8.48615 34.248 8.48615C48.7717 8.48615 60.5869 20.3027 60.5869 34.8264C60.5869 35.3703 60.3708 35.8919 59.9863 36.2765C59.6017 36.6611 59.08 36.8772 58.5361 36.8772Z" fill="black"/>
</svg>
