<svg width="101" height="101" viewBox="0 0 101 101" fill="none" xmlns="http://www.w3.org/2000/svg">
<path d="M90.7243 10.3825C86.3026 6.23418 80.951 3.20615 75.1179 1.55215C69.2849 -0.101852 63.1404 -0.33363 57.1993 0.876236C43.1872 3.34588 30.3127 10.1769 20.4118 20.395C10.1561 30.2982 3.30298 43.197 0.83682 57.2387C-0.363613 63.1712 -0.127072 69.3048 1.52669 75.1272C3.18044 80.9496 6.20341 86.2918 10.3431 90.7075C13.8005 94.024 17.8846 96.6176 22.3565 98.3368C26.8283 100.056 31.5981 100.866 36.3868 100.72C53.183 100.044 69.0581 92.8633 80.6556 80.695C102.812 58.5325 107.312 26.9762 90.7243 10.3825ZM6.40557 58.0825C8.70119 45.246 14.9791 33.4577 24.3493 24.3887C33.403 14.9983 45.1983 8.71673 58.0431 6.44499C60.2401 6.11293 62.4586 5.94371 64.6806 5.93874C68.7287 5.79856 72.7641 6.46765 76.5504 7.90682C80.3366 9.34598 83.7976 11.5263 86.7306 14.32C86.9663 14.5372 87.1741 14.7828 87.3493 15.0512C83.8457 18.0882 79.7997 20.4356 75.4243 21.97C69.1046 24.2428 63.4032 27.9603 58.7743 32.8262C53.9084 37.4551 50.1909 43.1566 47.9181 49.4762C45.9496 55.11 42.6498 60.185 38.2993 64.27C34.1987 68.6018 29.1285 71.8984 23.5056 73.8887C18.6694 75.6108 14.1893 78.2035 10.2868 81.5387C6.27643 74.4192 4.90226 66.1144 6.40557 58.0825ZM76.6618 76.7012C56.6931 96.67 28.7368 101.17 14.3368 86.77C14.098 86.5394 13.8726 86.2952 13.6618 86.0387C17.1927 83.0104 21.2553 80.6644 25.6431 79.12C31.9449 76.8115 37.6387 73.099 42.2931 68.2637C47.1476 63.6254 50.8632 57.9268 53.1493 51.6137C55.1178 45.98 58.4176 40.9049 62.7681 36.82C66.853 32.4695 71.9281 29.1697 77.5618 27.2012C82.3758 25.4423 86.8342 22.832 90.7243 19.495C99.9493 34.75 94.4931 58.87 76.6618 76.7012Z" fill="black"/>
</svg>
